# xmcd
#
# Track frame offsets: 
#        183
#        9143
#        17295
#        25615
#        36575
#        45088
#        55880
#        64683
#        75225
#        85688
#        97990
#        109405
#        122010
#        133680
#        144483
#        157733
#        168360
#        180708
#        194738
#        213153
#
# Disc length: 3092 seconds
#
# Revision: 1
# Processed by: cddbd v1.5.2PL0 Copyright (c) Steve Scherf et al.
# Submitted via: ExactAudioCopy v1.3
#
DISCID=ef0c1214
DTITLE=Joe Henderson - The Best of Mr Piano
DYEAR=1998
DGENRE=Folk
TTITLE0=Trudie
TTITLE1=Flirtation Waltz
TTITLE2=Treble Chance
TTITLE3=Ooh! La! La!
TTITLE4=Chick
TTITLE5=Coffee Bar Jive
TTITLE6=Theme from The Threepenny Opera
TTITLE7=Smile
TTITLE8=Forgotten Dreams
TTITLE9=Yours
TTITLE10=Cheek To cheek
TTITLE11=Isn't This A Lovely Day
TTITLE12=The Can't Take That Away From Me
TTITLE13=A Fine Romance
TTITLE14=Let's Face The Music And Dance
TTITLE15=The Way You Look Tonight
TTITLE16=Dream of Olwen
TTITLE17=The Anniversary Song
TTITLE18=Sing It With Joe (Medley)
TTITLE19=Sing It Again With Joe (Medley)
EXTD=YEAR: 1998
EXTT0=
EXTT1=
EXTT2=
EXTT3=
EXTT4=
EXTT5=
EXTT6=
EXTT7=
EXTT8=
EXTT9=
EXTT10=
EXTT11=
EXTT12=
EXTT13=
EXTT14=
EXTT15=
EXTT16=
EXTT17=
EXTT18=
EXTT19=
PLAYORDER=
